HIERARCHY
ROOT hip
{
  OFFSET 0 0 0
  CHANNELS 6 Xposition Yposition Zposition Zrotation Yrotation Xrotation
  JOINT abdomen
  {
    OFFSET 0 20.6881 -0.73152
    CHANNELS 3 Zrotation Xrotation Yrotation
    JOINT chest
    {
      OFFSET 0 11.7043 -0.48768
      CHANNELS 3 Zrotation Xrotation Yrotation
      JOINT neck
      {
        OFFSET 0 22.1894 -2.19456
        CHANNELS 3 Zrotation Xrotation Yrotation
        JOINT head
        {
          OFFSET -0.24384 7.07133 1.2192
          CHANNELS 3 Zrotation Xrotation Yrotation
          JOINT leftEye
          {
            OFFSET 4.14528 8.04674 8.04672
            CHANNELS 3 Zrotation Xrotation Yrotation
            End Site
            {
              OFFSET 1 0 0
            }
          }
          JOINT rightEye
          {
            OFFSET -3.6576 8.04674 8.04672
            CHANNELS 3 Zrotation Xrotation Yrotation
            End Site
            {
              OFFSET 1 0 0
            }
          }
        }
      }
      JOINT rCollar
      {
        OFFSET -2.68224 19.2634 -4.8768
        CHANNELS 3 Zrotation Xrotation Yrotation
        JOINT rShldr
        {
          OFFSET -8.77824 -1.95073 1.46304
          CHANNELS 3 Zrotation Xrotation Yrotation
          JOINT rForeArm
          {
            OFFSET -28.1742 -1.7115 0.48768
            CHANNELS 3 Zrotation Xrotation Yrotation
            JOINT rHand
            {
              OFFSET -22.5879 0.773209 7.07136
              CHANNELS 3 Zrotation Xrotation Yrotation
              JOINT rThumb1
              {
                OFFSET -1.2192 -0.487915 3.41376
                CHANNELS 3 Zrotation Xrotation Yrotation
                JOINT rThumb2
                {
                  OFFSET -3.37035 -0.52449 3.41376
                  CHANNELS 3 Zrotation Xrotation Yrotation
                  End Site
                  {
                    OFFSET -1.78271 -1.18214 1.43049
                  }
                }
              }
              JOINT rIndex1
              {
                OFFSET -7.75947 0.938293 5.60832
                CHANNELS 3 Zrotation Xrotation Yrotation
                JOINT rIndex2
                {
                  OFFSET -2.54057 -0.884171 1.56538
                  CHANNELS 3 Zrotation Xrotation Yrotation
                  End Site
                  {
                    OFFSET -1.62519 -0.234802 1.16502
                  }
                }
              }
              JOINT rMid1
              {
                OFFSET -8.24714 1.18213 3.41376
                CHANNELS 3 Zrotation Xrotation Yrotation
                JOINT rMid2
                {
                  OFFSET -3.10165 -0.590103 1.0647
                  CHANNELS 3 Zrotation Xrotation Yrotation
                  End Site
                  {
                    OFFSET -2.48547 -0.328903 0.83742
                  }
                }
              }
              JOINT rRing1
              {
                OFFSET -8.82822 0.546677 1.51678
                CHANNELS 3 Zrotation Xrotation Yrotation
                JOINT rRing2
                {
                  OFFSET -2.60934 -0.819778 -0.0198488
                  CHANNELS 3 Zrotation Xrotation Yrotation
                  End Site
                  {
                    OFFSET -2.33842 -0.294052 0.168128
                  }
                }
              }
              JOINT rPinky1
              {
                OFFSET -8.27202 -0.0477905 -0.4584
                CHANNELS 3 Zrotation Xrotation Yrotation
                JOINT rPinky2
                {
                  OFFSET -1.82734 -0.647385 -0.700984
                  CHANNELS 3 Zrotation Xrotation Yrotation
                  End Site
                  {
                    OFFSET -1.69225 -0.51767 -0.607171
                  }
                }
              }
            }
          }
        }
      }
      JOINT lCollar
      {
        OFFSET 2.68224 19.2634 -4.8768
        CHANNELS 3 Zrotation Xrotation Yrotation
        JOINT lShldr
        {
          OFFSET 8.77824 -1.95073 1.46304
          CHANNELS 3 Zrotation Xrotation Yrotation
          JOINT lForeArm
          {
            OFFSET 28.1742 -1.7115 0.48768
            CHANNELS 3 Zrotation Xrotation Yrotation
            JOINT lHand
            {
              OFFSET 22.5879 0.773209 7.07136
              CHANNELS 3 Zrotation Xrotation Yrotation
              JOINT lThumb1
              {
                OFFSET 1.2192 -0.487915 3.41376
                CHANNELS 3 Zrotation Xrotation Yrotation
                JOINT lThumb2
                {
                  OFFSET 3.37035 -0.52449 3.41376
                  CHANNELS 3 Zrotation Xrotation Yrotation
                  End Site
                  {
                    OFFSET 1.78271 -1.18214 1.43049
                  }
                }
              }
              JOINT lIndex1
              {
                OFFSET 7.75947 0.938293 5.60832
                CHANNELS 3 Zrotation Xrotation Yrotation
                JOINT lIndex2
                {
                  OFFSET 2.54057 -0.884171 1.56538
                  CHANNELS 3 Zrotation Xrotation Yrotation
                  End Site
                  {
                    OFFSET 1.62519 -0.234802 1.16502
                  }
                }
              }
              JOINT lMid1
              {
                OFFSET 8.24714 1.18213 3.41376
                CHANNELS 3 Zrotation Xrotation Yrotation
                JOINT lMid2
                {
                  OFFSET 3.10165 -0.590103 1.0647
                  CHANNELS 3 Zrotation Xrotation Yrotation
                  End Site
                  {
                    OFFSET 2.48547 -0.328903 0.83742
                  }
                }
              }
              JOINT lRing1
              {
                OFFSET 8.82822 0.546677 1.51678
                CHANNELS 3 Zrotation Xrotation Yrotation
                JOINT lRing2
                {
                  OFFSET 2.60934 -0.819778 -0.0198488
                  CHANNELS 3 Zrotation Xrotation Yrotation
                  End Site
                  {
                    OFFSET 2.33842 -0.294052 0.168128
                  }
                }
              }
              JOINT lPinky1
              {
                OFFSET 8.27202 -0.0477905 -0.4584
                CHANNELS 3 Zrotation Xrotation Yrotation
                JOINT lPinky2
                {
                  OFFSET 1.82734 -0.647385 -0.700984
                  CHANNELS 3 Zrotation Xrotation Yrotation
                  End Site
                  {
                    OFFSET 1.69225 -0.51767 -0.607171
                  }
                }
              }
            }
          }
        }
      }
    }
  }
  JOINT rButtock
  {
    OFFSET -8.77824 4.35084 1.2192
    CHANNELS 3 Zrotation Xrotation Yrotation
    JOINT rThigh
    {
      OFFSET 0 -1.70687 -2.19456
      CHANNELS 3 Zrotation Xrotation Yrotation
      JOINT rShin
      {
        OFFSET 0 -36.8199 0.73152
        CHANNELS 3 Zrotation Xrotation Yrotation
        JOINT rFoot
        {
          OFFSET 0.73152 -45.1104 -5.12064
          CHANNELS 3 Zrotation Xrotation Yrotation
          End Site
          {
            OFFSET -1.1221 -3.69964 12.103
          }
        }
      }
    }
  }
  JOINT lButtock
  {
    OFFSET 8.77824 4.35084 1.2192
    CHANNELS 3 Zrotation Xrotation Yrotation
    JOINT lThigh
    {
      OFFSET 0 -1.70687 -2.19456
      CHANNELS 3 Zrotation Xrotation Yrotation
      JOINT lShin
      {
        OFFSET 0 -36.8199 0.73152
        CHANNELS 3 Zrotation Xrotation Yrotation
        JOINT lFoot
        {
          OFFSET -0.73152 -45.1104 -5.12064
          CHANNELS 3 Zrotation Xrotation Yrotation
          End Site
          {
            OFFSET 1.1221 -3.69964 12.103
          }
        }
      }
    }
  }
}
MOTION
Frames:	4
Frame Time:	0.00833333
-0.298372 72.4624 -40.6104 4.5425 1.9903 8.6884 -2.81581 22.1513 -1.34725 2.82386 -9.69845 -0.262809 -6.12741 -1.73354 -2.65612 9.9092 -44.5298 0.380074 -0.0 0.0 0.0 -0.0 0.0 0.0 -2.43018e-13 3.56224e-13 -9.57148e-14 27.8127 5.06993 71.5509 -27.3535 -27.5991 63.4267 -0.0033775 1.65919 0.23325 2.3524e-09 -2.2716e-09 -6.21364e-09 4.0603e-09 -3.938e-09 -1.07436e-08 2.35242e-09 -2.27158e-09 -6.21365e-09 7.73091 5.47488 0.417314 2.35241e-09 -2.27158e-09 -6.21364e-09 2.90554 0.965183 0.102902 2.3524e-09 -2.27159e-09 -6.21364e-09 10.2786 0.731801 0.0259123 2.3524e-09 -2.27159e-09 -6.21364e-09 2.22167 -0.733487 -0.20892 -2.43076e-13 3.56221e-13 -9.60627e-14 -27.9901 -3.59706 -67.5638 27.6384 -28.7715 -65.2916 0.0284718 -4.81101 0.677752 2.65061e-10 -5.56716e-09 4.29251e-09 4.33671e-10 -9.57415e-09 7.42098e-09 2.65057e-10 -5.56716e-09 4.29252e-09 -7.73091 5.47488 -0.417314 2.65064e-10 -5.56716e-09 4.29251e-09 -2.90554 0.965183 -0.102902 2.65057e-10 -5.56716e-09 4.29251e-09 -10.2786 0.731801 -0.0259123 2.65065e-10 -5.56716e-09 4.2925e-09 -2.22167 -0.733487 0.20892 -2.03217e-16 0.0 -3.88251e-19 -2.8242 -25.2658 9.53192 -1.34857 64.7704 2.1129 -4.21112 -21.699 -8.79365 2.03217e-16 0.0 3.88251e-19 1.27262 -24.3101 6.09738 1.07534 60.1177 -1.51544 -1.73273 -17.1494 -5.1692
-0.179916 73.9234 -38.7449 4.5111 1.8541 8.0806 -2.45267 20.1166 -1.31711 2.71602 -9.33745 -0.23928 -6.2341 -1.23098 -2.5741 9.96437 -43.3684 0.450781 -0.0 0.0 0.0 -0.0 0.0 0.0 -2.00511e-13 3.47515e-13 -7.02968e-14 27.7573 4.29476 71.5512 -27.2973 -27.3819 63.0617 -0.00330508 1.4055 0.19761 1.95856e-09 -2.60976e-09 -5.73447e-09 3.38013e-09 -4.52116e-09 -9.91491e-09 1.95858e-09 -2.60974e-09 -5.73448e-09 7.73091 5.47488 0.417314 1.95857e-09 -2.60974e-09 -5.73447e-09 2.90554 0.965183 0.102902 1.95856e-09 -2.60976e-09 -5.73447e-09 10.2786 0.731801 0.0259123 1.95856e-09 -2.60975e-09 -5.73447e-09 2.22167 -0.733487 -0.20892 -2.00572e-13 3.47511e-13 -7.06505e-14 -27.7853 -4.22809 -67.1054 27.6309 -28.7393 -65.2435 0.0260377 -4.54169 0.639706 1.53537e-10 -5.32281e-09 4.26581e-09 2.42375e-10 -9.15554e-09 7.37429e-09 1.53533e-10 -5.32281e-09 4.26582e-09 -7.73091 5.47488 -0.417314 1.53541e-10 -5.3228e-09 4.26581e-09 -2.90554 0.965183 -0.102902 1.53534e-10 -5.3228e-09 4.26581e-09 -10.2786 0.731801 -0.0259123 1.53541e-10 -5.32281e-09 4.26579e-09 -2.22167 -0.733487 0.20892 -2.03217e-16 0.0 -3.88251e-19 -2.80053 -22.255 9.73637 -1.0932 61.412 1.79811 -3.50165 -18.6045 -8.11333 2.03217e-16 0.0 3.88251e-19 1.44565 -21.1246 6.07247 0.881751 56.6555 -1.31317 -1.48355 -13.9879 -5.33421
-0.108771 75.5489 -36.7767 4.3161 1.7152 7.7523 -2.00648 17.8263 -1.35162 2.58878 -8.89002 -0.233072 -6.42915 -0.676825 -2.49848 10.105 -41.9161 0.537654 -0.0 0.0 0.0 -0.0 0.0 0.0 -1.08423e-13 2.99074e-13 -2.62147e-14 27.7151 3.773 71.3218 -27.1776 -26.944 62.3601 -0.0033964 1.29877 0.182622 1.10447e-09 -2.8441e-09 -4.34237e-09 1.90536e-09 -4.92238e-09 -7.50736e-09 1.10449e-09 -2.84409e-09 -4.34239e-09 7.73091 5.47488 0.417314 1.10448e-09 -2.84409e-09 -4.34237e-09 2.90554 0.965183 0.102902 1.10447e-09 -2.8441e-09 -4.34237e-09 10.2786 0.731801 0.0259123 1.10446e-09 -2.8441e-09 -4.34237e-09 2.22167 -0.733487 -0.20892 -1.08483e-13 2.99069e-13 -2.65719e-14 -27.5401 -4.50075 -66.3657 27.5957 -28.5847 -64.9947 0.0249252 -4.41316 0.621547 -2.92074e-11 -4.41068e-09 3.77684e-09 -6.87035e-11 -7.58953e-09 6.52828e-09 -2.92108e-11 -4.41068e-09 3.77685e-09 -7.73091 5.47488 -0.417314 -2.9203e-11 -4.41067e-09 3.77685e-09 -2.90554 0.965183 -0.102902 -2.92097e-11 -4.41067e-09 3.77684e-09 -10.2786 0.731801 -0.0259123 -2.92043e-11 -4.41067e-09 3.77683e-09 -2.22167 -0.733487 0.20892 -2.03217e-16 0.0 -3.88251e-19 -2.75027 -19.1723 10.0019 -0.887806 57.8695 1.52658 -2.76349 -14.8349 -7.39998 2.03217e-16 0.0 3.88251e-19 1.63638 -17.8321 5.97596 0.715189 52.9448 -1.14376 -1.11379 -10.3069 -5.34435
-0.0920589 77.2899 -34.7477 3.9106 1.6135 7.5885 -1.52292 15.4395 -1.40684 2.4469 -8.39609 -0.236519 -6.65189 -0.108429 -2.42711 10.2398 -40.3083 0.604782 -0.0 0.0 0.0 -0.0 0.0 0.0 -8.6459e-15 2.32295e-13 1.92837e-14 27.6382 3.43537 70.9102 -27.0189 -26.3985 61.5076 -0.00334045 1.3649 0.191909 1.73506e-10 -2.88257e-09 -2.67141e-09 2.98006e-10 -4.98437e-09 -4.6176e-09 1.73521e-10 -2.88257e-09 -2.67143e-09 7.73091 5.47488 0.417314 1.73507e-10 -2.88257e-09 -2.67141e-09 2.90554 0.965183 0.102902 1.7351e-10 -2.88257e-09 -2.67142e-09 10.2786 0.731801 0.0259123 1.735e-10 -2.88257e-09 -2.67141e-09 2.22167 -0.733487 -0.20892 -8.70094e-15 2.3229e-13 1.89276e-14 -27.2784 -4.5272 -65.4462 27.5472 -28.377 -64.6632 0.023233 -4.27799 0.602413 -2.08111e-10 -3.23016e-09 3.05072e-09 -3.72017e-10 -5.56159e-09 5.27233e-09 -2.08114e-10 -3.23016e-09 3.05073e-09 -7.73091 5.47488 -0.417314 -2.08106e-10 -3.23016e-09 3.05072e-09 -2.90554 0.965183 -0.102902 -2.08113e-10 -3.23015e-09 3.05072e-09 -10.2786 0.731801 -0.0259123 -2.08108e-10 -3.23015e-09 3.05071e-09 -2.22167 -0.733487 0.20892 -2.03217e-16 0.0 -3.88251e-19 -2.68719 -16.2312 10.3035 -0.73161 54.3656 1.30085 -2.06482 -10.4836 -6.78487 2.03217e-16 0.0 3.88251e-19 1.77181 -14.612 5.68378 0.573577 49.1199 -0.995504 -0.639266 -6.1126 -5.0672
